<?xml version="1.0" standalone="no"?><!DOCTYPE svg PUBLIC "-//W3C//DTD SVG 1.1//EN" "http://www.w3.org/Graphics/SVG/1.1/DTD/svg11.dtd"><svg t="1595404897716" class="icon" viewBox="0 0 1024 1024" version="1.1" xmlns="http://www.w3.org/2000/svg" p-id="9766" xmlns:xlink="http://www.w3.org/1999/xlink" width="230" height="230"><defs><style type="text/css"></style></defs><path d="M201.8 824.5h674.4c28.6 0 51.9 23.2 51.9 51.9s-23.2 51.9-51.9 51.9H149.9c-28.6 0-51.9-23.2-51.9-51.9V150.1c0-28.6 23.2-51.9 51.9-51.9s51.9 23.2 51.9 51.9v674.4z m155.6-415h51.9c28.6 0 51.9 23.2 51.9 51.9v259.4c0 28.6-23.2 51.9-51.9 51.9h-51.9c-28.6 0-51.9-23.2-51.9-51.9V461.3c0-28.6 23.2-51.8 51.9-51.8z m207.5-155.6h51.9c28.6 0 51.9 23.2 51.9 51.9v415c0 28.6-23.2 51.9-51.9 51.9h-51.9c-28.6 0-51.9-23.2-51.9-51.9v-415c0-28.7 23.2-51.9 51.9-51.9zM772.4 98.2h51.9c28.6 0 51.9 23.2 51.9 51.9v570.6c0 28.6-23.2 51.9-51.9 51.9h-51.9c-28.6 0-51.9-23.2-51.9-51.9V150.1c0-28.6 23.2-51.9 51.9-51.9z" p-id="9767"></path></svg>